<?xml version="1.0" encoding="UTF-8"?>
<svg version="1.1" xmlns="http://www.w3.org/2000/svg" width="1200" height="1200">
<path d="M0 0 C1.6567187 -0.01653153 3.31336689 -0.04378493 4.96972656 -0.08203125 C7.35893736 -0.1369282 9.74647306 -0.15869434 12.13623047 -0.17333984 C12.87286926 -0.19600922 13.60950806 -0.21867859 14.36846924 -0.24203491 C18.35870396 -0.22572165 20.04367636 0.18470217 23.17114258 2.74633789 C25.03026086 5.07980811 26.34306483 7.08073106 27.55810547 9.78759766 C29.53896225 13.97834778 31.72077837 17.97151198 34.05810547 21.97509766 C36.83976543 26.76893951 39.43212826 31.62132521 41.87060547 36.60009766 C49.47053752 52.07470472 57.90475944 67.141052 66.24560547 82.22509766 C69.51307357 88.13564366 72.67492532 94.0696072 75.64013672 100.13916016 C78.26985156 105.39858984 81.0490016 110.58024852 83.82006836 115.76635742 C89.24560547 125.98454036 89.24560547 125.98454036 89.24560547 130.35009766 C89.90560547 130.35009766 90.56560547 130.35009766 91.24560547 130.35009766 C91.57560547 129.19509766 91.90560547 128.04009766 92.24560547 126.85009766 C96.453833 114.34177158 103.62904071 102.7298768 109.95776367 91.21142578 C112.99402877 85.67779769 115.9220513 80.11492948 118.70263672 74.44775391 C124.14325617 63.52519383 129.94515907 52.79635028 135.9909668 42.19873047 C138.5641271 37.65324933 140.94360612 33.03806506 143.24560547 28.35009766 C146.03178015 22.69168615 148.93493778 17.11536022 151.99560547 11.60009766 C152.36041016 10.93236328 152.72521484 10.26462891 153.10107422 9.57666016 C155.20692869 5.82777637 157.13215623 3.4635469 160.24560547 0.35009766 C171.79560547 0.35009766 183.34560547 0.35009766 195.24560547 0.35009766 C195.24560547 65.03009766 195.24560547 129.71009766 195.24560547 196.35009766 C184.68560547 196.35009766 174.12560547 196.35009766 163.24560547 196.35009766 C162.24560547 195.35009766 162.24560547 195.35009766 162.12255764 193.1187048 C162.12347943 192.12409017 162.12440123 191.12947554 162.12535095 190.10472107 C162.12328896 188.39879288 162.12328896 188.39879288 162.1211853 186.65840149 C162.12478058 185.39964706 162.12837585 184.14089264 162.13208008 182.84399414 C162.13193405 181.52711609 162.13178802 180.21023804 162.13163757 178.85345459 C162.1313496 175.23171497 162.13724623 171.6100082 162.14421153 167.98827624 C162.15044517 164.20727881 162.15104888 160.42628071 162.15223694 156.64527893 C162.15535023 149.48065475 162.16356358 142.31604576 162.17358643 135.15142828 C162.18474765 126.99678604 162.19025804 118.84214309 162.19528186 110.68749511 C162.20574619 93.90835373 162.22334558 77.12922763 162.24560547 60.35009766 C160.22063088 64.12209873 158.19660189 67.89460532 156.17337036 71.6675415 C155.48794803 72.94542447 154.80228727 74.22317957 154.11636353 75.50079346 C149.7294112 83.6724808 145.3874969 91.86484133 141.12060547 100.10009766 C136.44752211 109.10306073 131.65817098 118.03720877 126.78417969 126.93310547 C123.63339817 132.70401057 120.63294973 138.5307966 117.70996094 144.42016602 C115.46257259 148.91681616 113.12858762 153.36156884 110.74560547 157.78759766 C110.29830078 158.64546875 109.85099609 159.50333984 109.39013672 160.38720703 C106.27415899 166.15042658 103.2529961 170.34640234 97.24560547 173.35009766 C91.17737383 173.82466449 85.35090663 174.23654025 79.68310547 171.85009766 C76.52592184 168.6119606 74.44526134 165.28503761 72.24560547 161.35009766 C71.63716797 160.31369141 71.02873047 159.27728516 70.40185547 158.20947266 C66.31280025 151.22275606 62.59646026 144.11911105 59.02685547 136.85009766 C57.20837981 133.27695251 55.26294608 129.81281258 53.24560547 126.35009766 C49.91503941 120.63326396 46.94412037 114.79070981 44.02685547 108.85009766 C42.20837713 105.27694724 40.26288791 101.81284965 38.24560547 98.35009766 C35.59454446 93.79800102 33.13134227 89.20741834 30.80810547 84.47509766 C26.8850057 76.62889812 22.54633285 68.99583523 18.24560547 61.35009766 C17.91560547 105.90009766 17.58560547 150.45009766 17.24560547 196.35009766 C6.68560547 196.35009766 -3.87439453 196.35009766 -14.75439453 196.35009766 C-16.47349076 194.63100143 -15.87930953 192.44056311 -15.88813794 190.14809418 C-15.88590721 189.39684517 -15.88367649 188.64559616 -15.88137817 187.87158203 C-15.88293816 187.07922401 -15.88449816 186.286866 -15.88610542 185.47049713 C-15.89011864 182.79492882 -15.88692454 180.11941647 -15.88378906 177.44384766 C-15.88514296 175.53401659 -15.88692283 173.62418578 -15.88909912 171.71435547 C-15.89367482 166.51202764 -15.89188334 161.30971955 -15.88872004 156.10739136 C-15.88619713 150.6759231 -15.88853378 145.2444566 -15.8901062 139.81298828 C-15.8919281 130.6899383 -15.88952105 121.56689641 -15.88476562 112.44384766 C-15.87932297 101.8800517 -15.88108561 91.31627504 -15.88659203 80.75247955 C-15.89112258 71.70028772 -15.891774 62.64810172 -15.88915336 53.59590912 C-15.88759026 48.18169335 -15.88739771 42.76748667 -15.89068985 37.35327148 C-15.89356772 32.26443575 -15.89159443 27.17562501 -15.88579559 22.08679199 C-15.88446754 20.21342002 -15.88486287 18.34004596 -15.88705826 16.4666748 C-15.889768 13.92062539 -15.88639081 11.37465743 -15.88137817 8.82861328 C-15.8836089 8.07736427 -15.88583962 7.32611526 -15.88813794 6.55210114 C-15.85242501 -2.72146581 -7.53365024 0.05512064 0 0 Z " fill="#F7E007" transform="translate(423.75439453125,376.64990234375)"/>
<path d="M0 0 C69.96 0 139.92 0 212 0 C212 30.69 212 61.38 212 93 C142.04 93 72.08 93 0 93 C0 62.31 0 31.62 0 0 Z " fill="#F6E008" transform="translate(707,732)"/>
<path d="M0 0 C69.96 0 139.92 0 212 0 C212 30.69 212 61.38 212 93 C142.04 93 72.08 93 0 93 C0 62.31 0 31.62 0 0 Z " fill="#F6E008" transform="translate(494,732)"/>
<path d="M0 0 C69.96 0 139.92 0 212 0 C212 30.69 212 61.38 212 93 C142.04 93 72.08 93 0 93 C0 62.31 0 31.62 0 0 Z " fill="#F6E008" transform="translate(281,732)"/>
<path d="M0 0 C69.96 0 139.92 0 212 0 C212 30.69 212 61.38 212 93 C142.04 93 72.08 93 0 93 C0 62.31 0 31.62 0 0 Z " fill="#F6E008" transform="translate(707,638)"/>
<path d="M0 0 C69.96 0 139.92 0 212 0 C212 30.69 212 61.38 212 93 C142.04 93 72.08 93 0 93 C0 62.31 0 31.62 0 0 Z " fill="#F6E008" transform="translate(494,638)"/>
<path d="M0 0 C69.96 0 139.92 0 212 0 C212 30.69 212 61.38 212 93 C142.04 93 72.08 93 0 93 C0 62.31 0 31.62 0 0 Z " fill="#F6E008" transform="translate(281,638)"/>
<path d="M0 0 C9.67676574 -0.11703518 19.35327942 -0.20528311 29.03060436 -0.25906086 C33.52660209 -0.28490143 38.02210767 -0.31981704 42.51782227 -0.37719727 C99.44282307 -1.08432124 99.44282307 -1.08432124 119.88671875 18.82421875 C120.58410156 19.54222656 121.28148437 20.26023437 122 21 C122.58394531 21.56332031 123.16789063 22.12664062 123.76953125 22.70703125 C133.11273756 32.42869655 134.75636491 46.08734025 135 59 C134.42843055 73.17492235 129.60264522 86.42225174 120 97 C119.34 97 118.68 97 118 97 C117.505 98.485 117.505 98.485 117 100 C110.50151359 105.62657209 102.72709324 109.37543564 95 113 C95.825 113.928125 96.65 114.85625 97.5 115.8125 C102.90407255 122.13208601 107.72866945 128.88343814 112.125 135.9375 C115.50362096 141.34174726 119.14287125 146.54160481 122.8125 151.75 C128.28783708 159.524082 133.64429138 167.36122964 138.87841797 175.29931641 C140.72515718 178.09957443 142.58071169 180.89389291 144.4375 183.6875 C145.05496094 184.61949219 145.67242188 185.55148437 146.30859375 186.51171875 C147.94369304 188.98821067 147.94369304 188.98821067 149.72265625 191.14453125 C151 193 151 193 151 196 C145.53738362 196.07428762 140.07506284 196.12866714 134.61206055 196.16479492 C132.75458655 196.17985946 130.89714799 196.20031509 129.03979492 196.22631836 C126.36628461 196.26280459 123.69324556 196.2797497 121.01953125 196.29296875 C120.19226028 196.30845261 119.36498932 196.32393646 118.51264954 196.33988953 C113.83557495 196.34124748 110.79439533 196.03765923 107 193 C105.35728622 190.87430524 103.92084332 188.82591917 102.5 186.5625 C102.0769458 185.90854248 101.6538916 185.25458496 101.21801758 184.58081055 C100.29412245 183.15109574 99.37479178 181.7184235 98.45947266 180.28320312 C96.95865351 177.93531744 95.44089497 175.59922534 93.91796875 173.265625 C90.60192294 168.18358378 87.3003887 163.0922184 84 158 C81.73024927 154.49929639 79.45933038 150.99935431 77.1875 147.5 C76.37720337 146.25065674 76.37720337 146.25065674 75.55053711 144.97607422 C71.8927974 139.34557667 68.17733076 133.75966289 64.390625 128.21484375 C63 126 63 126 62 123 C56.59417066 120.91154556 51.31106471 120.59734577 45.5625 120.375 C44.73556641 120.33632813 43.90863281 120.29765625 43.05664062 120.2578125 C41.03808927 120.16446908 39.01907669 120.08119039 37 120 C37.00222061 120.9373851 37.00444122 121.8747702 37.00672913 122.84056091 C37.02696143 131.65521785 37.04197256 140.4698701 37.05181217 149.28454494 C37.05704078 153.81674094 37.06413801 158.34891827 37.07543945 162.88110352 C37.08626914 167.2512283 37.09227701 171.62133508 37.09487724 175.99147224 C37.09673135 177.66250963 37.10035168 179.33354597 37.10573006 181.00457573 C37.11294159 183.33697551 37.1139909 185.66929993 37.11352539 188.00170898 C37.11712067 188.6994191 37.12071594 189.39712921 37.12442017 190.11598206 C37.11405216 194.88594784 37.11405216 194.88594784 36 196 C33.34543807 196.10095564 30.71744824 196.13970998 28.0625 196.1328125 C26.86959351 196.13424759 26.86959351 196.13424759 25.65258789 196.13571167 C23.9679354 196.13639343 22.28328029 196.13453943 20.59863281 196.13037109 C18.01100803 196.12502275 15.42355684 196.13031619 12.8359375 196.13671875 C11.20312461 196.13605797 9.57031184 196.1347768 7.9375 196.1328125 C7.15834229 196.13483673 6.37918457 196.13686096 5.57641602 196.13894653 C0.11495105 196.11495105 0.11495105 196.11495105 -1 195 C-1.09993772 192.51300472 -1.13441526 190.05371917 -1.12698364 187.56617737 C-1.12854363 186.77860847 -1.13010362 185.99103957 -1.13171089 185.17960495 C-1.1357241 182.52019003 -1.13253 179.86083143 -1.12939453 177.20141602 C-1.13074844 175.30305955 -1.13252831 173.40470335 -1.13470459 171.50634766 C-1.13928046 166.3349434 -1.13748865 161.16355899 -1.1343255 155.99215436 C-1.13180232 150.59185051 -1.13413936 145.19154842 -1.13571167 139.79124451 C-1.13753365 130.71946913 -1.13512649 121.64770188 -1.13037109 112.57592773 C-1.12493006 102.07463573 -1.12668987 91.57336314 -1.1321975 81.07207161 C-1.13672979 72.07166838 -1.13737856 63.07127101 -1.13475883 54.070867 C-1.13319648 48.68847742 -1.1330011 43.30609697 -1.13629532 37.92370796 C-1.13917565 32.86359622 -1.13719533 27.80350959 -1.13140106 22.74340057 C-1.13007427 20.88173654 -1.13046622 19.02007042 -1.13266373 17.15840721 C-1.13537841 14.62584463 -1.13199013 12.0933636 -1.12698364 9.56080627 C-1.12921436 8.81636106 -1.13144509 8.07191584 -1.13374341 7.30491167 C-1.11414996 2.22829992 -1.11414996 2.22829992 0 0 Z M37 29 C37 50.45 37 71.9 37 94 C64.31096459 95.74093235 64.31096459 95.74093235 88.3046875 84.91796875 C95.41446732 77.27430436 97.57057674 70.95962429 97.5 60.6875 C97.49572998 59.75558838 97.49145996 58.82367676 97.48706055 57.86352539 C97.27968369 49.50323355 95.62880533 43.62880533 89.625 37.625 C88.325625 36.820625 88.325625 36.820625 87 36 C86.05125 35.319375 85.1025 34.63875 84.125 33.9375 C70.05271919 26.44215885 51.81168047 29 37 29 Z " fill="#F6E007" transform="translate(662,377)"/>
<path d="M0 0 C34.65 0 69.3 0 105 0 C105 30.69 105 61.38 105 93 C70.35 93 35.7 93 0 93 C0 62.31 0 31.62 0 0 Z " fill="#F6E008" transform="translate(920,732)"/>
<path d="M0 0 C34.65 0 69.3 0 105 0 C105 30.69 105 61.38 105 93 C70.35 93 35.7 93 0 93 C0 62.31 0 31.62 0 0 Z " fill="#F6E008" transform="translate(175,732)"/>
<path d="M0 0 C34.65 0 69.3 0 105 0 C105 30.69 105 61.38 105 93 C70.35 93 35.7 93 0 93 C0 62.31 0 31.62 0 0 Z " fill="#F6E008" transform="translate(920,638)"/>
<path d="M0 0 C34.65 0 69.3 0 105 0 C105 30.69 105 61.38 105 93 C70.35 93 35.7 93 0 93 C0 62.31 0 31.62 0 0 Z " fill="#F6E008" transform="translate(175,638)"/>
<path d="M0 0 C5.19464351 3.5682371 7.54972646 8.44325906 9.05859375 14.4140625 C10.09766603 20.67108468 8.76647022 25.57482412 5.7578125 31.109375 C2.31236062 35.78251663 -2.49468767 38.59848964 -7.94140625 40.4140625 C-15.64915759 41.12002771 -22.37041277 40.78572962 -28.94140625 36.4140625 C-31.06364041 34.52054029 -32.30472635 32.82094471 -33.94140625 30.4140625 C-34.83859375 29.1146875 -34.83859375 29.1146875 -35.75390625 27.7890625 C-37.99099568 21.43101885 -38.16042108 14.27349228 -35.37890625 8.0390625 C-32.43755 3.05018971 -28.37073396 -0.34302565 -23.25390625 -2.9609375 C-14.72442209 -4.57027413 -7.63844348 -4.37530042 0 0 Z " fill="#ACAC9B" transform="translate(773.94140625,760.5859375)"/>
<path d="M0 0 C2.97 0 5.94 0 9 0 C13.95 8.91 18.9 17.82 24 27 C26.30316889 23.92910815 28.08487567 21.17747153 29.8828125 17.83203125 C30.41003906 16.85685547 30.93726563 15.88167969 31.48046875 14.87695312 C32.02316406 13.86568359 32.56585938 12.85441406 33.125 11.8125 C34.20939814 9.79734796 35.29525597 7.7829805 36.3828125 5.76953125 C36.86121582 4.87854736 37.33961914 3.98756348 37.83251953 3.06958008 C39 1 39 1 40 0 C42.97 0 45.94 0 49 0 C49 14.52 49 29.04 49 44 C46.36 44 43.72 44 41 44 C40.67 34.76 40.34 25.52 40 16 C36.29735305 23.18315344 36.29735305 23.18315344 32.64208984 30.39038086 C32.16980957 31.28120361 31.6975293 32.17202637 31.2109375 33.08984375 C30.73962402 34.00628662 30.26831055 34.92272949 29.78271484 35.86694336 C28 38 28 38 24.79931641 38.80688477 C23.41365479 38.90247681 23.41365479 38.90247681 22 39 C16.94314586 30.85923102 12.46800767 22.47380765 8 14 C7.67 23.9 7.34 33.8 7 44 C4.69 44 2.38 44 0 44 C0 29.48 0 14.96 0 0 Z " fill="#ACAC9B" transform="translate(203,664)"/>
<path d="M0 0 C21 0 21 0 29 4 C31.97374571 8.46061856 31.74701417 12.77090079 31 18 C29.13061253 21.65249551 26.39700951 23.735327 23 26 C23.44730469 26.56847656 23.89460938 27.13695312 24.35546875 27.72265625 C35 41.31769723 35 41.31769723 35 44 C31.84105298 44.58021476 29.14335192 44.73194479 26 44 C23.0667944 41.39656308 21.08306153 38.30254227 19 35 C17.41518958 32.54127983 15.82322401 30.3030198 14 28 C12.35 27.67 10.7 27.34 9 27 C9 32.61 9 38.22 9 44 C6.03 44 3.06 44 0 44 C0 29.48 0 14.96 0 0 Z " fill="#ADAC9A" transform="translate(212,757)"/>
<path d="M0 0 C22.44 0 22.44 0 29.375 4.5625 C31.98485346 8.47728019 31.60783607 12.44122946 31 17 C29.24568389 21.24729163 26.56354501 23.212153 23 26 C23.61488281 26.79664063 24.22976563 27.59328125 24.86328125 28.4140625 C25.67994737 29.48417673 26.49633901 30.55450047 27.3125 31.625 C28.11300781 32.66914062 28.91351562 33.71328125 29.73828125 34.7890625 C31.83858371 37.77083904 33.46782897 40.6976508 35 44 C31.84105298 44.58021476 29.14335192 44.73194479 26 44 C23.0667944 41.39656308 21.08306153 38.30254227 19 35 C17.41518958 32.54127983 15.82322401 30.3030198 14 28 C12.35 27.67 10.7 27.34 9 27 C9 32.61 9 38.22 9 44 C6.03 44 3.06 44 0 44 C0 29.48 0 14.96 0 0 Z " fill="#ACAC9B" transform="translate(851,757)"/>
<path d="M0 0 C3.3 0 6.6 0 10 0 C12.42322573 6.10469398 14.84424439 12.21025664 17.26318359 18.31665039 C18.08711468 20.39566955 18.91165811 22.47444613 19.73681641 24.55297852 C20.91989023 27.53338717 22.10078936 30.51464928 23.28125 33.49609375 C23.65310425 34.43150497 24.0249585 35.3669162 24.40808105 36.33067322 C24.74843384 37.19149002 25.08878662 38.05230682 25.43945312 38.93920898 C25.7414563 39.70087875 26.04345947 40.46254852 26.35461426 41.24729919 C27 43 27 43 27 44 C24.03 44 21.06 44 18 44 C16.68 40.7 15.36 37.4 14 34 C7.73 33.67 1.46 33.34 -5 33 C-5.33 35.31 -5.66 37.62 -6 40 C-7.0625 42.4375 -7.0625 42.4375 -9 44 C-11.75441898 44.33205446 -14.20725808 44.18313062 -17 44 C-14.53872892 34.4378204 -10.60986213 25.46103817 -6.8125 16.375 C-6.15124584 14.78273759 -5.4904349 13.19029104 -4.83007812 11.59765625 C-3.22515434 7.72962881 -1.61425258 3.86414299 0 0 Z " fill="#ADAC9A" transform="translate(329,664)"/>
<path d="M0 0 C3.46679688 0.04882812 3.46679688 0.04882812 6.93359375 0.09765625 C10.70574637 8.15111231 14.1364619 16.32535957 17.43774414 24.58007812 C18.25692868 26.62469941 19.08439918 28.66584878 19.91210938 30.70703125 C20.43670185 32.01412078 20.96080898 33.32140523 21.484375 34.62890625 C21.95528564 35.80001953 22.42619629 36.97113281 22.91137695 38.17773438 C23.93359375 41.09765625 23.93359375 41.09765625 23.93359375 44.09765625 C21.29359375 44.09765625 18.65359375 44.09765625 15.93359375 44.09765625 C15.26239826 42.64140175 14.59677568 41.18257758 13.93359375 39.72265625 C13.56234375 38.91054688 13.19109375 38.0984375 12.80859375 37.26171875 C11.93359375 35.09765625 11.93359375 35.09765625 11.93359375 33.09765625 C5.66359375 33.09765625 -0.60640625 33.09765625 -7.06640625 33.09765625 C-7.54078125 34.72703125 -8.01515625 36.35640625 -8.50390625 38.03515625 C-9.94140625 42.97265625 -9.94140625 42.97265625 -11.06640625 44.09765625 C-13.73699476 44.23880786 -16.39072863 44.14012732 -19.06640625 44.09765625 C-18.64832765 38.94135346 -16.69924515 34.96054184 -14.52734375 30.359375 C-12.85943105 26.63555921 -11.4161106 22.86155756 -10.00390625 19.03515625 C-9.75141113 18.35203369 -9.49891602 17.66891113 -9.23876953 16.96508789 C-8.74559308 15.63011026 -8.25258662 14.29506982 -7.75976562 12.95996094 C-2.98716932 0.14117057 -2.98716932 0.14117057 0 0 Z " fill="#ADAC9A" transform="translate(438.06640625,756.90234375)"/>
<path d="M0 0 C9.24 0 18.48 0 28 0 C28 1.98 28 3.96 28 6 C21.4 6 14.8 6 8 6 C8 10.29 8 14.58 8 19 C13.28 19 18.56 19 24 19 C24 20.98 24 22.96 24 25 C18.72 25 13.44 25 8 25 C8 29.29 8 33.58 8 38 C14.6 38 21.2 38 28 38 C28 39.98 28 41.96 28 44 C18.76 44 9.52 44 0 44 C0 29.48 0 14.96 0 0 Z " fill="#AAAAA0" transform="translate(321,757)"/>
<path d="M0 0 C9.24 0 18.48 0 28 0 C28 1.98 28 3.96 28 6 C21.4 6 14.8 6 8 6 C8 10.29 8 14.58 8 19 C13.28 19 18.56 19 24 19 C24 20.98 24 22.96 24 25 C18.72 25 13.44 25 8 25 C8 29.29 8 33.58 8 38 C14.6 38 21.2 38 28 38 C28 39.98 28 41.96 28 44 C18.76 44 9.52 44 0 44 C0 29.48 0 14.96 0 0 Z " fill="#AAAAA0" transform="translate(534,664)"/>
<path d="M0 0 C3.96449795 2.31885729 5.94953175 4.61471312 7.3125 8.9375 C8.09969567 14.06644498 7.93943863 17.74847846 5.5 22.375 C4.778125 23.220625 4.05625 24.06625 3.3125 24.9375 C2.8175 25.535625 2.3225 26.13375 1.8125 26.75 C-1.80347669 29.61264821 -6.26748074 29.24232891 -10.6875 28.9375 C-15.21599965 27.42800012 -17.80483302 25.42641238 -19.9921875 21.09765625 C-21.83364357 15.37672811 -21.57483499 9.84868306 -19.0625 4.4375 C-13.39650474 -1.52670554 -7.73673215 -2.22922791 0 0 Z " fill="#F5DF0B" transform="translate(766.6875,765.0625)"/>
<path d="M0 0 C2.3125 1.625 2.3125 1.625 3.3125 3.625 C2.3225 4.945 1.3325 6.265 0.3125 7.625 C-4.4375 6.75 -4.4375 6.75 -6.6875 5.625 C-10.73892119 5.36639865 -12.23087669 5.32058446 -15.6875 7.625 C-15.8988453 10.0162295 -15.8988453 10.0162295 -14.6875 12.625 C-11.84214187 14.33460594 -8.78366745 15.44722202 -5.6875 16.625 C-1.11996068 18.60713971 1.73975954 20.27113153 4.3125 24.625 C4.97597937 29.8380522 4.15005525 33.22189703 1.3125 37.625 C-3.53537149 42.10928113 -7.47443898 43.01112095 -13.90234375 42.9921875 C-18.68411354 42.36177185 -22.58996862 40.06608252 -26.6875 37.625 C-24.90625 32.75 -24.90625 32.75 -22.9375 31.625 C-19.71486922 31.625 -17.54825189 33.19462406 -14.6875 34.625 C-11.12384347 34.91009252 -8.10221343 34.67568106 -4.6875 33.625 C-5.0175 31.315 -5.3475 29.005 -5.6875 26.625 C-6.33976563 26.37105469 -6.99203125 26.11710938 -7.6640625 25.85546875 C-20.77146947 20.69370229 -20.77146947 20.69370229 -23.5625 17.4375 C-25.03525156 13.75562111 -25.50463563 10.49126211 -24.6875 6.625 C-19.52543598 -2.69539338 -9.26535871 -3.45487952 0 0 Z " fill="#ADAC99" transform="translate(983.6875,758.375)"/>
<path d="M0 0 C1.91233788 1.19223907 3.66759674 2.41685156 5.38671875 3.87109375 C4.72671875 5.52109375 4.06671875 7.17109375 3.38671875 8.87109375 C0.2638124 8.38530832 -2.60908484 7.87249255 -5.61328125 6.87109375 C-10.91913501 6.5287806 -14.35123953 6.33968776 -18.61328125 9.87109375 C-22.0168859 13.74416111 -22.00532041 17.42908342 -21.8359375 22.36328125 C-21.52360062 25.88118082 -20.97801602 28.59573031 -19.61328125 31.87109375 C-17.76181561 33.33913738 -17.76181561 33.33913738 -15.61328125 33.87109375 C-14.12828125 34.36609375 -14.12828125 34.36609375 -12.61328125 34.87109375 C-6.6707805 35.34649381 -2.0798482 33.95359544 3.38671875 31.87109375 C4.37671875 32.86109375 5.36671875 33.85109375 6.38671875 34.87109375 C4.9283506 38.7158825 3.02213576 40.05338525 -0.61328125 41.87109375 C-6.84727338 43.78108283 -14.00665736 43.98672371 -19.98828125 41.24609375 C-25.63539408 37.96637996 -29.30026335 32.95798295 -31.61328125 26.87109375 C-32.21491881 19.53111551 -31.67574336 12.01982273 -26.98828125 6.05859375 C-19.93290626 -1.21673298 -9.67442855 -4.17923745 0 0 Z " fill="#ACAC9B" transform="translate(985.61328125,665.12890625)"/>
<path d="M0 0 C1.670625 0.7425 1.670625 0.7425 3.375 1.5 C3.045 3.15 2.715 4.8 2.375 6.5 C-1.32988102 7.87217815 -3.0675204 6.93993222 -6.625 5.5 C-10.77905674 5.21161543 -10.77905674 5.21161543 -14.625 6.5 C-14.625 8.48 -14.625 10.46 -14.625 12.5 C-14.068125 12.74234375 -13.51125 12.9846875 -12.9375 13.234375 C-8.99976161 14.96378713 -5.07207085 16.71643789 -1.1875 18.5625 C-0.54941406 18.86285156 0.08867188 19.16320312 0.74609375 19.47265625 C2.375 20.5 2.375 20.5 4.375 23.5 C5.18154334 28.99915916 4.75079941 33.96376954 1.375 38.5 C-3.35952222 42.14456027 -8.25863309 43.14568512 -14.15234375 42.890625 C-18.0179845 42.27993926 -21.60974647 41.05076277 -24.625 38.5 C-25.4140625 36.47265625 -25.4140625 36.47265625 -25.625 34.5 C-24.4375 32.6875 -24.4375 32.6875 -22.625 31.5 C-20.30913973 31.72411551 -18.81355235 32.38946931 -16.8125 33.5625 C-13.66135607 34.91299026 -11.01223309 34.74634422 -7.625 34.5 C-6.635 33.84 -5.645 33.18 -4.625 32.5 C-4.3747843 29.41634129 -4.3747843 29.41634129 -4.625 26.5 C-5.66140625 26.12488281 -6.6978125 25.74976563 -7.765625 25.36328125 C-9.135717 24.8471507 -10.50549231 24.33017897 -11.875 23.8125 C-12.55691406 23.56822266 -13.23882813 23.32394531 -13.94140625 23.07226562 C-18.39602139 21.36394234 -21.09754509 19.74637891 -23.625 15.5 C-24.39978849 12.08024392 -24.28683256 8.93926663 -23.625 5.5 C-17.63615871 -2.48512172 -9.01411958 -3.38430468 0 0 Z " fill="#ACAB9C" transform="translate(663.625,665.5)"/>
<path d="M0 0 C11.55 0 23.1 0 35 0 C35 2.31 35 4.62 35 7 C30.71 7 26.42 7 22 7 C22 19.21 22 31.42 22 44 C19.03 44 16.06 44 13 44 C13 31.79 13 19.58 13 7 C8.71 7 4.42 7 0 7 C0 4.69 0 2.38 0 0 Z " fill="#ACAB9C" transform="translate(636,757)"/>
<path d="M0 0 C11.55 0 23.1 0 35 0 C35 2.31 35 4.62 35 7 C30.71 7 26.42 7 22 7 C22 19.21 22 31.42 22 44 C19.03 44 16.06 44 13 44 C13 31.79 13 19.58 13 7 C8.71 7 4.42 7 0 7 C0 4.69 0 2.38 0 0 Z " fill="#ACAB9B" transform="translate(742,664)"/>
<path d="M0 0 C2.64 0 5.28 0 8 0 C8 12.21 8 24.42 8 37 C13.94 37 19.88 37 26 37 C26 39.31 26 41.62 26 44 C17.42 44 8.84 44 0 44 C0 29.48 0 14.96 0 0 Z " fill="#AAAA9F" transform="translate(536,757)"/>
<path d="M0 0 C2.64 0 5.28 0 8 0 C8.09940876 4.71388705 8.17172034 9.42715442 8.21972656 14.1418457 C8.23975347 15.74319091 8.26698354 17.3444638 8.30175781 18.94555664 C8.35067419 21.25685537 8.37305711 23.56718154 8.390625 25.87890625 C8.41127014 26.58648575 8.43191528 27.29406525 8.45318604 28.02308655 C8.45564244 33.55322751 7.04846263 36.55589347 4 41 C-1.17908089 44.91589043 -6.79814239 44.29795401 -13 44 C-13 41.69 -13 39.38 -13 37 C-11.95199219 36.85304688 -11.95199219 36.85304688 -10.8828125 36.703125 C-9.97273438 36.55359375 -9.06265625 36.4040625 -8.125 36.25 C-7.22007812 36.11078125 -6.31515625 35.9715625 -5.3828125 35.828125 C-2.93299147 35.23726421 -2.93299147 35.23726421 -1.87695312 33.39648438 C-0.69181474 30.15780999 -0.67067417 27.27408308 -0.5859375 23.828125 C-0.56657135 23.1457074 -0.5472052 22.46328979 -0.5272522 21.76019287 C-0.46768902 19.59025392 -0.42116554 17.42026123 -0.375 15.25 C-0.33679869 13.77471703 -0.2977457 12.29945585 -0.2578125 10.82421875 C-0.16200765 7.21634582 -0.07789084 3.60830917 0 0 Z " fill="#ABAB9D" transform="translate(441,664)"/>
<path d="M0 0 C2.64 0 5.28 0 8 0 C8 14.52 8 29.04 8 44 C5.36 44 2.72 44 0 44 C0 29.48 0 14.96 0 0 Z " fill="#AAAA9F" transform="translate(862,664)"/>
<path d="M0 0 C8.78723404 -0.29787234 8.78723404 -0.29787234 13 2 C14.40457737 4.80915474 14.24895157 6.88810534 14 10 C12.22015595 13.1359157 11.47691793 13.84102736 8 15 C6.60560336 15.06665376 5.20830125 15.08538199 3.8125 15.0625 C1.9253125 15.0315625 1.9253125 15.0315625 0 15 C0 10.05 0 5.1 0 0 Z " fill="#F5DF0B" transform="translate(221,763)"/>
<path d="M0 0 C5.38422078 -0.27377394 8.54453408 -0.37535297 13 3 C14 4 14 4 14.25 6.8125 C13.97503293 10.31833015 13.45377858 11.54622142 11 14 C8.24921116 14.91692961 6.64051087 15.10886083 3.8125 15.0625 C1.9253125 15.0315625 1.9253125 15.0315625 0 15 C0 10.05 0 5.1 0 0 Z " fill="#F5E00A" transform="translate(860,763)"/>
<path d="M0 0 C2.56679483 2.56679483 3.33348554 5.05010682 4.625 8.4375 C5.07101562 9.59121094 5.51703125 10.74492188 5.9765625 11.93359375 C7 15 7 15 7 18 C2.71 18 -1.58 18 -6 18 C-4.76281145 11.50476013 -2.89324549 5.94098468 0 0 Z " fill="#F1DD12" transform="translate(440,766)"/>
<path d="M0 0 C0.66 0 1.32 0 2 0 C2.84124316 2.24732102 3.67314832 4.49738785 4.5 6.75 C4.73847656 7.38421875 4.97695313 8.0184375 5.22265625 8.671875 C6.44801758 12.03286607 7 14.36871587 7 18 C2.71 18 -1.58 18 -6 18 C-4.2177429 11.88940424 -2.30678315 5.9317281 0 0 Z " fill="#F1DD12" transform="translate(333,673)"/>
</svg>
