<svg xmlns="http://www.w3.org/2000/svg" version="1.1" viewBox="175 523 850 154"><path d="" stroke="none" fill="#fce408" fill-rule="evenodd"/><path d="M 175 558 L 175 593 215.500 593 L 256 593 256 558 L 256 523 215.500 523 L 175 523 175 558 M 285 558 L 285 593 325.500 593 L 366 593 366 558 L 366 523 325.500 523 L 285 523 285 558 M 395 558 L 395 593 435.500 593 L 476 593 476 558 L 476 523 435.500 523 L 395 523 395 558 M 505 558 L 505 593 545.500 593 L 586 593 586 558 L 586 523 545.500 523 L 505 523 505 558 M 615 558 L 615 593 655.500 593 L 696 593 696 558 L 696 523 655.500 523 L 615 523 615 558 M 725 558 L 725 593 765 593 L 805 593 805 558 L 805 523 765 523 L 725 523 725 558 M 834 558 L 834 593 874.500 593 L 915 593 915 558 L 915 523 874.500 523 L 834 523 834 558 M 944 558 L 944 593 984.500 593 L 1025 593 1025 558 L 1025 523 984.500 523 L 944 523 944 558 M 177 558.500 L 177 591 215 591 L 253 591 253 558.500 L 253 526 215 526 L 177 526 177 558.500 M 287 558.500 L 287 591 325 591 L 363 591 363 558.500 L 363 526 325 526 L 287 526 287 558.500 M 397 558.500 L 397 591 435 591 L 473 591 473 558.500 L 473 526 435 526 L 397 526 397 558.500 M 507 558.500 L 507 591 545 591 L 583 591 583 558.500 L 583 526 545 526 L 507 526 507 558.500 M 617 558.500 L 617 591 655 591 L 693 591 693 558.500 L 693 526 655 526 L 617 526 617 558.500 M 727 558.500 L 727 591 765 591 L 803 591 803 558.500 L 803 526 765 526 L 727 526 727 558.500 M 837 558.500 L 837 591 875 591 L 913 591 913 558.500 L 913 526 875 526 L 837 526 837 558.500 M 947 558.500 L 947 591 985 591 L 1023 591 1023 558.500 L 1023 526 985 526 L 947 526 947 558.500 M 193 558.445 L 193 578 197 578 L 201 578 201 565.360 L 201 552.721 203.275 556.110 C 204.527 557.975, 206.986 562.525, 208.741 566.222 C 211.168 571.337, 212.549 573.100, 214.516 573.593 C 217.673 574.386, 218.301 573.623, 224.444 561.538 L 229 552.576 229 565.288 L 229 578 233 578 L 237 578 237 558.500 L 237 539 232.680 539 C 228.894 539, 228.184 539.362, 226.930 541.935 C 222.301 551.432, 218.386 558.781, 216.913 560.740 C 215.004 563.277, 214.207 562.696, 212.011 557.165 C 211.283 555.330, 210.194 553.305, 209.591 552.665 C 208.988 552.024, 207.146 548.800, 205.498 545.500 C 202.519 539.538, 202.470 539.498, 197.750 539.195 L 193 538.890 193 558.445 M 320.653 540.831 C 319.741 541.838, 319.275 542.942, 319.617 543.284 C 319.959 543.625, 319.536 544.606, 318.679 545.464 C 317.821 546.322, 317.294 547.930, 317.507 549.038 C 317.721 550.147, 317.501 550.810, 317.020 550.512 C 315.861 549.796, 314.670 553.657, 315.590 555.146 C 315.988 555.789, 315.877 556.042, 315.342 555.712 C 314.554 555.224, 310.506 564.803, 310.501 567.167 C 310.501 567.533, 310.163 568.171, 309.750 568.583 C 309.337 568.996, 309 570.103, 309 571.044 C 309 571.985, 308.352 573.293, 307.559 573.951 C 305.568 575.604, 306.731 578, 309.525 578 C 313.353 578, 315 576.915, 315 574.393 C 315 573.077, 315.498 572, 316.107 572 C 316.716 572, 316.969 571.362, 316.670 570.583 C 315.914 568.612, 318.089 568, 325.846 568 L 332.528 568 334.444 572.250 C 335.498 574.587, 336.279 576.837, 336.180 577.250 C 336.081 577.663, 338.003 578, 340.452 578 L 344.904 578 343.259 573.560 C 342.354 571.119, 341.181 569.388, 340.652 569.715 C 340.123 570.042, 340.014 569.786, 340.410 569.146 C 341.389 567.561, 340.103 563.818, 338.847 564.595 C 338.266 564.954, 337.978 564.388, 338.169 563.263 C 338.351 562.187, 338.040 560.676, 337.479 559.904 C 336.917 559.132, 335.145 554.588, 333.540 549.808 C 331.936 545.027, 330.263 541.338, 329.823 541.609 C 329.383 541.881, 329.291 541.406, 329.618 540.552 C 330.527 538.184, 322.831 538.424, 320.653 540.831 M 435.056 553.568 C 435.208 570.562, 434.593 572.126, 428.053 571.375 C 424.545 570.972, 424.203 571.156, 423.715 573.713 C 423.423 575.240, 423.348 576.754, 423.549 577.079 C 423.749 577.403, 426.545 577.764, 429.762 577.880 C 434.777 578.061, 435.994 577.735, 438.305 575.593 C 439.787 574.219, 441 572.399, 441 571.548 C 441 570.696, 441.409 570, 441.908 570 C 442.408 570, 442.876 563.025, 442.948 554.500 L 443.080 539 439.003 539 L 434.926 539 435.056 553.568 M 533 558.500 L 533 578 546 578 L 559 578 559 575 L 559 572 550.500 572 L 542 572 542 566.500 L 542 561 549 561 C 555.800 561, 556 560.929, 556 558.500 C 556 556.071, 555.800 556, 549 556 L 542 556 542 550.500 L 542 545 550.500 545 L 559 545 559 542 L 559 539 546 539 L 533 539 533 558.500 M 649.070 540.044 C 646.755 541.020, 643.800 544.336, 643.323 546.493 C 643.201 547.047, 642.800 548.513, 642.434 549.750 C 642.030 551.111, 642.196 552, 642.852 552 C 643.449 552, 643.734 552.563, 643.486 553.250 C 642.806 555.135, 646.279 559.070, 648.789 559.259 C 650.005 559.351, 651 559.828, 651 560.320 C 651 560.812, 651.675 560.955, 652.500 560.638 C 653.325 560.322, 654 560.499, 654 561.031 C 654 561.564, 654.810 562, 655.800 562 C 660.227 562, 661.769 568.879, 657.750 570.697 C 654.953 571.962, 651.615 571.755, 649.741 570.200 C 648.957 569.550, 648.020 569.313, 647.658 569.675 C 647.296 570.037, 647 569.808, 647 569.167 C 647 567.381, 645.226 567.774, 642.933 570.067 C 641.244 571.756, 641.093 572.408, 642.110 573.633 C 645.515 577.735, 658.034 579.519, 662.568 576.547 C 665.123 574.874, 669 568.180, 669 565.444 C 669 561.251, 664.355 556.493, 659.348 555.555 C 654.785 554.701, 651 551.999, 651 549.597 C 651 548.303, 651.563 546.792, 652.250 546.239 C 653.718 545.059, 659.780 545.573, 661.532 547.026 C 663.073 548.306, 665.206 547.501, 666.727 545.066 C 667.738 543.447, 667.516 542.911, 665.205 541.388 C 662.062 539.317, 652.652 538.533, 649.070 540.044 M 749 542 L 749 545 755 545 L 761 545 761 561.500 L 761 578 765 578 L 769 578 769 561.500 L 769 545 775 545 L 781 545 781 542 L 781 539 765 539 L 749 539 749 542 M 871 558.500 L 871 578 875 578 L 879 578 879 558.500 L 879 539 875 539 L 871 539 871 558.500 M 982 540.234 C 982 540.773, 981.373 540.973, 980.606 540.679 C 978.681 539.940, 973.478 544.465, 971.202 548.858 C 969.372 552.390, 968.501 563.180, 969.859 565.500 C 970.180 566.050, 970.525 567.032, 970.623 567.681 C 970.941 569.772, 974.441 573.930, 976.453 574.607 C 977.528 574.968, 979.051 575.908, 979.838 576.695 C 980.859 577.716, 983.304 578.062, 988.384 577.903 C 995.472 577.682, 997.710 576.979, 1001.272 573.857 C 1003.097 572.258, 1003.087 572.159, 1000.885 570.107 C 998.168 567.576, 997.383 567.494, 996.195 569.615 C 994.946 571.848, 984.348 572.157, 982.981 570 C 982.458 569.175, 982.022 568.950, 982.012 569.500 C 982.001 570.050, 981.055 568.961, 979.908 567.081 C 978.123 564.152, 977.121 557.011, 978.039 553.750 C 978.155 553.337, 978.306 552.651, 978.375 552.226 C 978.613 550.753, 982.554 546.499, 983.971 546.184 C 988.354 545.212, 993.970 545.480, 994.432 546.683 C 995.195 548.671, 999.355 548.262, 1000.729 546.063 C 1001.774 544.389, 1001.523 543.776, 998.874 541.548 C 996.178 539.279, 994.980 538.986, 988.905 539.111 C 985.107 539.189, 982 539.694, 982 540.234 M 324.319 550.888 C 324.018 552.037, 323.432 552.767, 323.015 552.509 C 322.599 552.252, 322.004 553.935, 321.693 556.249 C 321.383 558.563, 320.650 560.617, 320.065 560.812 C 319.479 561.007, 319 561.579, 319 562.083 C 319 562.587, 321.722 563, 325.050 563 C 330.366 563, 330.988 562.801, 330.180 561.358 C 329.675 560.455, 329.499 558.809, 329.788 557.702 C 330.144 556.341, 329.939 555.920, 329.158 556.403 C 328.428 556.853, 328 556.378, 328 555.118 C 328 554.018, 327.543 552.835, 326.984 552.490 C 326.425 552.144, 326.207 551.474, 326.500 551 C 326.793 550.526, 326.545 549.837, 325.949 549.468 C 325.342 549.093, 324.625 549.717, 324.319 550.888 M 175 642 L 175 677 215.500 677 L 256 677 256 642 L 256 607 215.500 607 L 175 607 175 642 M 285 642 L 285 677 325.500 677 L 366 677 366 642 L 366 607 325.500 607 L 285 607 285 642 M 395 642 L 395 677 435.500 677 L 476 677 476 642 L 476 607 435.500 607 L 395 607 395 642 M 505 642 L 505 677 545.500 677 L 586 677 586 642 L 586 607 545.500 607 L 505 607 505 642 M 615 642 L 615 677 655.500 677 L 696 677 696 642 L 696 607 655.500 607 L 615 607 615 642 M 725 642 L 725 677 765 677 L 805 677 805 642 L 805 607 765 607 L 725 607 725 642 M 834 642 L 834 677 874.500 677 L 915 677 915 642 L 915 607 874.500 607 L 834 607 834 642 M 944 642 L 944 677 984.500 677 L 1025 677 1025 642 L 1025 607 984.500 607 L 944 607 944 642 M 177 642 L 177 674 215 674 L 253 674 253 642 L 253 610 215 610 L 177 610 177 642 M 287 642 L 287 674 325 674 L 363 674 363 642 L 363 610 325 610 L 287 610 287 642 M 397 642 L 397 674 435 674 L 473 674 473 642 L 473 610 435 610 L 397 610 397 642 M 507 642 L 507 674 545 674 L 583 674 583 642 L 583 610 545 610 L 507 610 507 642 M 617 642 L 617 674 655 674 L 693 674 693 642 L 693 610 655 610 L 617 610 617 642 M 727 642 L 727 674 765 674 L 803 674 803 642 L 803 610 765 610 L 727 610 727 642 M 837 642 L 837 674 875 674 L 913 674 913 642 L 913 610 875 610 L 837 610 837 642 M 947 642 L 947 674 985 674 L 1023 674 1023 642 L 1023 610 985 610 L 947 610 947 642 M 201 641.500 L 201 661 205.500 661 L 210 661 210 653.500 C 210 643.435, 212.620 643.353, 218.774 653.224 C 220.393 655.822, 222.079 657.622, 222.520 657.224 C 222.960 656.826, 223.053 656.971, 222.726 657.548 C 221.442 659.811, 223.716 661.121, 228.393 660.811 C 232.926 660.511, 233.037 660.430, 231.543 658.500 C 228.544 654.628, 225.030 649.475, 223.843 647.210 C 222.775 645.173, 222.995 644.598, 225.821 642.016 C 227.570 640.419, 229.037 638.525, 229.082 637.806 C 229.127 637.088, 229.372 635.234, 229.625 633.687 C 230.070 630.968, 226.428 623.239, 225.255 624.412 C 224.970 624.697, 223.796 624.270, 222.646 623.465 C 221.156 622.421, 217.745 622, 210.777 622 L 201 622 201 641.500 M 313 641.500 L 313 661 326 661 L 339 661 339 658 L 339 655 330.500 655 L 322 655 322 649.500 L 322 644 329 644 C 335.800 644, 336 643.929, 336 641.500 C 336 639.071, 335.800 639, 329 639 L 322 639 322 633.500 L 322 628 330.500 628 L 339 628 339 625 L 339 622 326 622 L 313 622 313 641.500 M 430.653 623.831 C 429.741 624.838, 429.275 625.942, 429.617 626.284 C 429.959 626.625, 429.536 627.606, 428.679 628.464 C 427.821 629.322, 427.294 630.930, 427.507 632.038 C 427.721 633.147, 427.501 633.810, 427.020 633.512 C 425.861 632.796, 424.670 636.657, 425.590 638.146 C 425.988 638.789, 425.877 639.042, 425.342 638.712 C 424.554 638.224, 420.506 647.803, 420.501 650.167 C 420.501 650.533, 420.163 651.171, 419.750 651.583 C 419.337 651.996, 419 653.103, 419 654.044 C 419 654.985, 418.352 656.293, 417.559 656.951 C 415.568 658.604, 416.731 661, 419.525 661 C 423.353 661, 425 659.915, 425 657.393 C 425 656.077, 425.498 655, 426.107 655 C 426.716 655, 426.969 654.362, 426.670 653.583 C 425.914 651.612, 428.089 651, 435.846 651 L 442.528 651 444.444 655.250 C 445.498 657.587, 446.279 659.837, 446.180 660.250 C 446.081 660.663, 448.003 661, 450.452 661 L 454.904 661 453.259 656.560 C 452.354 654.119, 451.181 652.388, 450.652 652.715 C 450.123 653.042, 450.014 652.786, 450.410 652.146 C 451.389 650.561, 450.103 646.818, 448.847 647.595 C 448.266 647.954, 447.978 647.388, 448.169 646.263 C 448.351 645.187, 448.040 643.676, 447.479 642.904 C 446.917 642.132, 445.145 637.588, 443.540 632.808 C 441.936 628.027, 440.263 624.338, 439.823 624.609 C 439.383 624.881, 439.291 624.406, 439.618 623.552 C 440.527 621.184, 432.831 621.424, 430.653 623.831 M 535 641.500 L 535 661 547 661 L 559 661 559 658 L 559 655 551 655 L 543 655 543 638.500 L 543 622 539 622 L 535 622 535 641.500 M 639 625 L 639 628 645 628 L 651 628 651 644.500 L 651 661 655.500 661 L 660 661 660 644.500 L 660 628 665.500 628 C 670.944 628, 671 627.970, 671 625 L 671 622 655 622 L 639 622 639 625 M 756.609 623.709 C 755.277 624.970, 754.930 625.056, 755.435 624 C 755.830 623.175, 755.242 623.532, 754.130 624.794 C 753.018 626.056, 751.746 627.093, 751.304 627.100 C 750.862 627.106, 749.313 628.880, 747.861 631.041 C 745.680 634.289, 745.222 636.102, 745.222 641.500 C 745.222 647.017, 745.664 648.687, 748.067 652.265 C 749.631 654.594, 751.268 656.477, 751.705 656.448 C 752.142 656.419, 753.322 657.319, 754.326 658.448 C 755.331 659.577, 755.816 659.825, 755.404 659 C 754.856 657.900, 755.194 657.971, 756.674 659.265 C 758.215 660.614, 760.267 660.997, 765.367 660.886 C 769.038 660.806, 772.289 660.342, 772.590 659.854 C 772.892 659.367, 773.551 659.223, 774.056 659.535 C 775.427 660.382, 783.267 652.241, 782.412 650.858 C 781.969 650.141, 782.125 649.959, 782.816 650.386 C 783.503 650.811, 784.230 649.996, 784.682 648.291 C 786.314 642.147, 785.017 631.253, 782.816 632.614 C 782.134 633.035, 781.969 632.859, 782.397 632.167 C 783.291 630.719, 775.408 622.630, 773.969 623.519 C 773.388 623.878, 772.370 623.747, 771.706 623.226 C 771.043 622.706, 767.800 622.199, 764.500 622.100 C 759.927 621.961, 758.050 622.344, 756.609 623.709 M 861 641.500 L 861 661 865.500 661 L 870 661 870 653.500 C 870 643.435, 872.620 643.353, 878.774 653.224 C 880.393 655.822, 882.079 657.622, 882.520 657.224 C 882.960 656.826, 883.053 656.971, 882.726 657.548 C 881.442 659.811, 883.716 661.121, 888.393 660.811 C 892.926 660.511, 893.037 660.430, 891.543 658.500 C 888.544 654.628, 885.030 649.475, 883.843 647.210 C 882.775 645.173, 882.995 644.598, 885.821 642.016 C 887.570 640.419, 889.037 638.525, 889.082 637.806 C 889.127 637.088, 889.372 635.234, 889.625 633.687 C 890.070 630.968, 886.428 623.239, 885.255 624.412 C 884.970 624.697, 883.796 624.270, 882.646 623.465 C 881.156 622.421, 877.745 622, 870.777 622 L 861 622 861 641.500 M 979.070 623.044 C 976.755 624.020, 973.800 627.336, 973.323 629.493 C 973.201 630.047, 972.800 631.513, 972.434 632.750 C 972.030 634.111, 972.196 635, 972.852 635 C 973.449 635, 973.734 635.563, 973.486 636.250 C 972.806 638.135, 976.279 642.070, 978.789 642.259 C 980.005 642.351, 981 642.828, 981 643.320 C 981 643.812, 981.675 643.955, 982.500 643.638 C 983.325 643.322, 984 643.499, 984 644.031 C 984 644.564, 984.810 645, 985.800 645 C 990.227 645, 991.769 651.879, 987.750 653.697 C 984.953 654.962, 981.615 654.755, 979.741 653.200 C 978.957 652.550, 978.020 652.313, 977.658 652.675 C 977.296 653.037, 977 652.808, 977 652.167 C 977 650.381, 975.226 650.774, 972.933 653.067 C 971.244 654.756, 971.093 655.408, 972.110 656.633 C 975.515 660.735, 988.034 662.519, 992.568 659.547 C 995.123 657.874, 999 651.180, 999 648.444 C 999 644.251, 994.355 639.493, 989.348 638.555 C 984.785 637.701, 981 634.999, 981 632.597 C 981 631.303, 981.563 629.792, 982.250 629.239 C 983.718 628.059, 989.780 628.573, 991.532 630.026 C 993.073 631.306, 995.206 630.501, 996.727 628.066 C 997.738 626.447, 997.516 625.911, 995.205 624.388 C 992.062 622.317, 982.652 621.533, 979.070 623.044 M 210 634.131 L 210 641.262 213.750 640.557 C 215.813 640.170, 218.063 639.811, 218.750 639.760 C 219.438 639.709, 219.779 639.446, 219.509 639.175 C 219.238 638.905, 219.400 638.193, 219.868 637.592 C 220.336 636.991, 220.987 635.079, 221.316 633.343 C 221.853 630.503, 221.576 630.027, 218.555 628.593 C 216.709 627.717, 214.028 627, 212.599 627 C 210.043 627, 210 627.119, 210 634.131 M 870 634.131 L 870 641.262 873.750 640.557 C 875.813 640.170, 878.063 639.811, 878.750 639.760 C 879.438 639.709, 879.779 639.446, 879.509 639.175 C 879.238 638.905, 879.400 638.193, 879.868 637.592 C 880.336 636.991, 880.987 635.079, 881.316 633.343 C 881.853 630.503, 881.576 630.027, 878.555 628.593 C 876.709 627.717, 874.028 627, 872.599 627 C 870.043 627, 870 627.119, 870 634.131 M 761.795 628.738 C 758.764 629.171, 754.852 632.752, 754.282 635.615 C 754.076 636.652, 753.907 639.300, 753.907 641.500 C 753.907 647.307, 754.400 649.003, 756.823 651.520 C 759.442 654.241, 764.193 655.085, 768.969 653.677 C 770.911 653.105, 772.837 652.718, 773.250 652.818 C 773.662 652.918, 773.907 652.662, 773.794 652.250 C 773.681 651.837, 774.356 650.060, 775.294 648.300 C 777.474 644.210, 777.380 639.673, 775 634 C 773.961 631.525, 773.087 629.853, 773.056 630.285 C 773.025 630.717, 772.212 630.667, 771.250 630.174 C 768.714 628.874, 764.899 628.294, 761.795 628.738 M 434.319 633.888 C 434.018 635.037, 433.432 635.767, 433.015 635.509 C 432.599 635.252, 432.004 636.935, 431.693 639.249 C 431.383 641.563, 430.650 643.617, 430.065 643.812 C 429.479 644.007, 429 644.579, 429 645.083 C 429 645.587, 431.722 646, 435.050 646 C 440.366 646, 440.988 645.801, 440.180 644.358 C 439.675 643.455, 439.499 641.809, 439.788 640.702 C 440.144 639.341, 439.939 638.920, 439.158 639.403 C 438.428 639.853, 438 639.378, 438 638.118 C 438 637.018, 437.543 635.835, 436.984 635.490 C 436.425 635.144, 436.207 634.474, 436.500 634 C 436.793 633.526, 436.545 632.837, 435.949 632.468 C 435.342 632.093, 434.625 632.717, 434.319 633.888" stroke="none" fill="#f4e40c" fill-rule="evenodd"/></svg>