<svg version="1.1" id="Layer_1" xmlns="http://www.w3.org/2000/svg" xmlns:xlink="http://www.w3.org/1999/xlink" x="0px" y="0px"
	 width="100%" viewBox="0 0 950 188" enable-background="new 0 0 950 188" xml:space="preserve">
<path fill="#FDFEFE" opacity="1.000000" stroke="none" 
	d="
M686.000000,1.000000 
	C774.311218,1.000000 862.622375,1.000000 950.966797,1.000000 
	C950.966797,63.628815 950.966797,126.257652 950.966797,188.943237 
	C634.450500,188.943237 317.901031,188.943237 1.175781,188.943237 
	C1.175781,126.333687 1.175781,63.666912 1.175781,1.000000 
	C44.756775,1.000000 88.412346,1.000000 132.536362,1.378401 
	C133.994568,6.595281 137.672729,7.251574 141.609909,6.925232 
	C145.079865,6.637617 148.028061,5.295154 148.000000,1.000000 
	C311.022614,1.000000 474.045258,1.000000 637.540771,1.389838 
	C638.825867,4.472620 639.234314,7.378881 640.523987,9.819592 
	C644.846741,18.000971 650.719482,24.411665 660.510376,26.021015 
	C672.630798,28.013279 688.981995,14.497502 686.000000,1.000000 
M580.133179,84.034897 
	C585.115845,84.031326 589.513672,82.611717 593.353088,79.247421 
	C595.291382,77.548958 597.717041,76.406525 600.051636,75.940582 
	C600.051636,100.883217 600.051636,125.825844 600.051636,150.846008 
	C608.151733,150.846008 615.706787,150.846008 623.781860,150.846008 
	C623.781860,128.527115 623.781860,106.528008 623.781860,84.528908 
	C625.121399,85.348000 625.580261,86.331200 626.022583,87.321777 
	C634.963379,107.342796 643.864929,127.381615 652.916504,147.352432 
	C653.604614,148.870682 655.310608,150.942596 656.618774,150.998596 
	C664.560120,151.338638 672.523376,151.168137 680.604126,151.168137 
	C680.604126,110.215477 680.604126,69.690506 680.604126,29.190998 
	C672.793213,29.190998 665.337646,29.190998 657.232788,29.190998 
	C657.232788,51.499203 657.232788,73.620209 657.232788,95.741226 
	C656.845337,95.812241 656.457947,95.883255 656.070496,95.954269 
	C649.276428,80.337662 642.482361,64.721054 636.354431,48.841667 
	C639.190674,46.118378 642.191040,43.543354 644.820190,40.632957 
	C647.867065,37.260044 648.829712,33.515404 645.719727,29.458181 
	C643.404663,26.438053 641.396301,23.178518 639.011353,20.218960 
	C638.248291,19.272089 636.132874,18.109703 635.628967,18.462770 
	C630.957336,21.736437 626.502869,25.320015 621.062012,28.963713 
	C615.379761,28.915405 609.697510,28.867096 604.012939,28.033365 
	C605.812927,16.325670 613.291992,11.355898 624.697327,14.410800 
	C628.270874,15.367961 630.247192,13.723662 631.842957,10.957458 
	C620.232910,-0.567455 601.282227,9.247773 598.048706,21.871639 
	C596.804932,26.727423 595.412781,31.794901 600.012634,36.914116 
	C599.982117,40.271770 599.951660,43.629429 599.233398,46.939808 
	C598.158447,46.017303 597.140259,45.016533 595.997437,44.187630 
	C593.085571,42.075653 590.118103,40.040455 587.033936,37.069767 
	C587.033936,34.465759 587.033936,31.861752 587.033936,29.262379 
	C566.026123,29.262379 545.614990,29.262379 525.089539,29.262379 
	C525.089539,69.927048 525.089539,110.329323 525.089539,150.947632 
	C545.750977,150.947632 566.150208,150.947632 586.644653,150.947632 
	C586.644653,143.201797 586.644653,135.667984 586.644653,127.781372 
	C573.698730,127.781372 561.103943,127.781372 548.384216,127.781372 
	C548.384216,121.298157 548.384216,115.173676 549.043152,108.944359 
	C552.359619,106.640549 555.676025,104.336739 559.918518,101.872597 
	C566.174011,101.872597 572.429504,101.872597 579.319397,101.872597 
	C579.319397,95.568703 579.319397,89.806206 580.133179,84.034897 
M774.187439,119.311722 
	C778.462646,128.862625 782.684021,138.438416 787.076843,147.934921 
	C787.668701,149.214508 789.094482,150.983658 790.182617,151.018723 
	C798.283020,151.279831 806.395752,151.160477 814.674622,151.160477 
	C814.674622,110.224533 814.674622,69.828461 814.674622,29.245079 
	C806.868347,29.245079 799.299255,29.245079 791.278809,29.245079 
	C791.278809,51.703342 791.278809,73.919456 791.278809,96.135574 
	C789.593567,94.630989 788.771362,92.920586 788.000610,91.187302 
	C779.361755,71.759781 770.757202,52.316830 762.044800,32.922363 
	C761.381470,31.445749 760.010559,29.224913 758.897705,29.181873 
	C750.660217,28.863314 742.404724,29.009342 734.351440,29.009342 
	C734.351440,70.138466 734.351440,110.549118 734.351440,150.952881 
	C742.129700,150.952881 749.582153,150.952881 757.542419,150.952881 
	C757.542419,128.691086 757.542419,106.639633 757.542419,84.588188 
	C757.894287,84.506874 758.246094,84.425560 758.597961,84.344246 
	C763.712097,95.761520 768.826172,107.178802 774.187439,119.311722 
M837.911438,39.414520 
	C831.586548,43.994328 829.846191,50.019619 830.032349,57.862164 
	C830.585449,81.171227 830.323669,104.502541 830.142883,127.823318 
	C830.112000,131.802734 831.639221,134.353317 833.994629,137.433411 
	C842.631287,148.727036 853.364014,153.458160 867.601135,151.330750 
	C874.449036,150.307480 882.375000,152.900482 888.308472,150.352631 
	C894.436646,147.721207 898.859558,140.951736 903.760254,135.740295 
	C905.058472,134.359726 906.000183,132.061218 906.031494,130.166473 
	C906.232300,118.008942 906.133850,105.846474 906.133850,93.685623 
	C906.133850,88.747948 906.133911,83.810265 906.133911,78.915421 
	C893.517639,78.915421 881.482483,78.915421 869.621582,78.915421 
	C869.621582,86.773125 869.621582,94.185776 869.621582,102.118530 
	C874.234436,102.118530 878.462036,102.118530 882.501587,102.118530 
	C882.501587,111.055725 882.501587,119.452065 882.501587,127.777191 
	C872.844788,127.777191 863.563782,127.777191 854.128418,127.777191 
	C854.128418,102.668503 854.128418,77.779671 854.128418,52.904694 
	C863.787048,52.904694 873.163208,52.904694 883.022827,52.904694 
	C883.022827,59.017532 883.022827,64.763504 883.022827,70.562119 
	C890.927307,70.562119 898.335327,70.562119 906.135803,70.562119 
	C906.135803,66.651848 905.678955,62.947594 906.225098,59.397655 
	C907.626221,50.290470 903.861206,44.092010 897.479797,37.719265 
	C891.121887,31.370049 885.001770,27.544514 875.854187,28.884960 
	C871.450867,29.530199 866.794922,29.537357 862.393066,28.887297 
	C852.222351,27.385300 844.290344,30.509556 837.911438,39.414520 
M122.212776,52.499985 
	C122.212776,61.097363 122.212776,69.694740 122.212776,78.213371 
	C113.219315,78.213371 104.940498,78.213371 96.129425,78.213371 
	C96.129425,61.744446 96.129425,45.529835 96.129425,29.374184 
	C88.046021,29.374184 80.506622,29.374184 73.193802,29.374184 
	C73.193802,70.143349 73.193802,110.534241 73.193802,150.903870 
	C80.940750,150.903870 88.356079,150.903870 96.343811,150.903870 
	C96.343811,134.447647 96.343811,118.251236 96.343811,102.069733 
	C105.195351,102.069733 113.468033,102.069733 122.317490,102.069733 
	C122.317490,118.493515 122.317490,134.699478 122.317490,150.803497 
	C130.468781,150.803497 138.034378,150.803497 145.568451,150.803497 
	C145.568451,110.057838 145.568451,69.681114 145.568451,29.305391 
	C137.693710,29.305391 130.126099,29.305391 122.212814,29.305391 
	C122.212814,36.905792 122.212814,44.202904 122.212776,52.499985 
M501.549469,39.956390 
	C495.091919,30.541059 486.217316,27.293339 475.016663,28.886072 
	C470.282959,29.559208 465.373779,28.998224 460.544342,28.998217 
	C451.429565,28.998205 442.314819,28.998215 433.179077,28.998215 
	C433.179077,69.971931 433.179077,110.474091 433.179077,150.868942 
	C440.965942,150.868942 448.379547,150.868942 456.173737,150.868942 
	C456.173737,135.491913 456.173737,120.408417 456.173737,104.839867 
	C460.835297,104.839867 465.119843,104.854828 469.404236,104.836472 
	C476.396118,104.806526 484.248199,106.734383 490.144958,104.171898 
	C496.408844,101.449875 500.973358,94.604248 505.943085,89.246788 
	C507.435577,87.637840 508.488312,85.005951 508.561493,82.803452 
	C508.854431,73.986984 508.219696,65.122749 508.832794,56.339333 
	C509.305878,49.561729 507.576477,44.363270 501.549469,39.956390 
M400.809784,102.582489 
	C401.742218,101.632019 402.555145,100.512062 403.625549,99.757248 
	C414.553040,92.051331 418.586670,81.739548 416.724396,68.460739 
	C415.740265,61.443424 418.261841,53.407806 415.711945,47.284786 
	C413.158936,41.154236 406.403046,36.680847 401.182434,31.810040 
	C399.581024,30.315907 396.979675,29.152649 394.816895,29.120026 
	C379.668091,28.891516 364.514191,28.999020 349.361938,28.999018 
	C346.580963,28.999018 343.799957,28.999016 340.961517,28.999016 
	C340.961517,69.928780 340.961517,110.312607 340.961517,150.840607 
	C348.731140,150.840607 356.262238,150.840607 364.157959,150.840607 
	C364.157959,135.432022 364.157959,120.346924 364.157959,104.840660 
	C374.636230,104.840660 384.752380,104.925034 394.864502,104.762108 
	C396.663849,104.733124 398.446655,103.677277 400.809784,102.582489 
M719.912598,44.503815 
	C719.912598,39.406532 719.912598,34.309250 719.912598,29.320457 
	C711.712891,29.320457 704.156189,29.320457 696.545288,29.320457 
	C696.545288,70.084641 696.545288,110.486374 696.545288,151.090393 
	C704.378296,151.090393 711.978088,151.090393 719.912537,151.090393 
	C719.912537,115.744720 719.912537,80.623428 719.912598,44.503815 
M165.917862,149.365387 
	C164.747879,151.376144 163.545288,153.368774 162.414246,155.401199 
	C159.437592,160.750168 160.758286,163.020767 166.908157,163.022278 
	C218.509827,163.034912 270.111511,163.036255 321.713165,163.020844 
	C327.511353,163.019104 328.899933,160.688858 326.021759,155.538483 
	C320.998322,146.549347 315.999542,137.535004 310.560669,128.798782 
	C309.426300,126.976700 306.430817,125.285019 304.283997,125.273880 
	C264.168945,125.065681 224.052444,125.154724 183.936569,125.054810 
	C180.796005,125.046997 179.181534,126.253380 177.740494,128.878403 
	C174.064758,135.574234 170.096375,142.109406 165.917862,149.365387 
M282.496552,115.015312 
	C286.494873,115.015076 290.494263,115.073013 294.491272,115.000496 
	C300.019867,114.900200 301.409698,112.590523 298.676971,107.752151 
	C293.935822,99.357689 289.184296,90.959862 284.068604,82.794312 
	C283.101410,81.250526 280.427704,79.956406 278.529541,79.940216 
	C255.707428,79.745644 232.882721,79.875801 210.059753,79.740761 
	C206.921692,79.722198 205.299545,80.884857 203.841522,83.510857 
	C199.565811,91.211617 195.002136,98.751999 190.591522,106.378487 
	C186.816452,112.906036 188.020905,115.007164 195.533768,115.010284 
	C224.188416,115.022179 252.843063,115.015228 282.496552,115.015312 
M266.072845,51.382214 
	C260.399841,41.633095 254.730850,31.881655 249.052444,22.135681 
	C245.401382,15.869265 243.096909,15.820814 239.546921,21.920942 
	C238.879547,23.067722 238.218155,24.217976 237.553925,25.366587 
	C230.412903,37.715061 223.224518,50.036507 216.154495,62.425495 
	C213.389404,67.270836 214.754364,69.815941 220.083328,69.837730 
	C236.373108,69.904358 252.663589,69.914856 268.953217,69.829391 
	C274.011383,69.802856 275.292114,67.591408 272.926605,63.210720 
	C270.878601,59.418056 268.606812,55.746246 266.072845,51.382214 
z"/>
<path fill="#F0F1F1" opacity="1.000000" stroke="none" 
	d="
M685.562500,1.000000 
	C688.981995,14.497502 672.630798,28.013279 660.510376,26.021015 
	C650.719482,24.411665 644.846741,18.000971 640.523987,9.819592 
	C639.234314,7.378881 638.825867,4.472620 638.006836,1.389838 
	C640.370544,1.000000 642.741150,1.000000 645.556091,1.390061 
	C647.650452,9.128934 651.624634,14.769918 658.520935,17.969526 
	C667.445679,22.110193 680.368225,13.776256 679.000000,1.000000 
	C681.041687,1.000000 683.083313,1.000000 685.562500,1.000000 
z"/>
<path fill="#FEFFFF" opacity="1.000000" stroke="none" 
	d="
M678.531372,1.000000 
	C680.368225,13.776256 667.445679,22.110193 658.520935,17.969526 
	C651.624634,14.769918 647.650452,9.128934 646.000244,1.390061 
	C656.687561,1.000000 667.375122,1.000000 678.531372,1.000000 
z"/>
<path fill="#F0F1F1" opacity="1.000000" stroke="none" 
	d="
M147.533875,1.000000 
	C148.028061,5.295154 145.079865,6.637617 141.609909,6.925232 
	C137.672729,7.251574 133.994568,6.595281 133.002411,1.378401 
	C137.689255,1.000000 142.378510,1.000000 147.533875,1.000000 
z"/>
<path fill="#363636" opacity="1.000000" stroke="none" 
	d="
M599.921143,46.987083 
	C599.951660,43.629429 599.982117,40.271770 600.026855,36.031502 
	C600.041016,33.263962 600.041016,31.379040 600.041016,29.280384 
	C601.582642,29.101324 602.798950,28.960054 604.015259,28.818787 
	C609.697510,28.867096 615.379761,28.915405 621.900269,28.967226 
	C624.394775,29.683359 626.051025,30.395981 627.770813,31.476147 
	C629.556824,35.562225 631.279236,39.280758 633.014526,43.344894 
	C633.914307,45.495148 634.801331,47.299793 635.688293,49.104443 
	C642.482361,64.721054 649.276428,80.337662 656.070496,95.954269 
	C656.457947,95.883255 656.845337,95.812241 657.232788,95.741226 
	C657.232788,73.620209 657.232788,51.499203 657.232788,29.190998 
	C665.337646,29.190998 672.793213,29.190998 680.604126,29.190998 
	C680.604126,69.690506 680.604126,110.215477 680.604126,151.168137 
	C672.523376,151.168137 664.560120,151.338638 656.618774,150.998596 
	C655.310608,150.942596 653.604614,148.870682 652.916504,147.352432 
	C643.864929,127.381615 634.963379,107.342796 626.022583,87.321777 
	C625.580261,86.331200 625.121399,85.348000 623.781860,84.528908 
	C623.781860,106.528008 623.781860,128.527115 623.781860,150.846008 
	C615.706787,150.846008 608.151733,150.846008 600.051636,150.846008 
	C600.051636,125.825844 600.051636,100.883217 600.075195,75.014343 
	C600.039551,65.054428 599.980347,56.020756 599.921143,46.987083 
z"/>
<path fill="#353535" opacity="1.000000" stroke="none" 
	d="
M774.063843,118.953903 
	C768.826172,107.178802 763.712097,95.761520 758.597961,84.344246 
	C758.246094,84.425560 757.894287,84.506874 757.542419,84.588188 
	C757.542419,106.639633 757.542419,128.691086 757.542419,150.952881 
	C749.582153,150.952881 742.129700,150.952881 734.351440,150.952881 
	C734.351440,110.549118 734.351440,70.138466 734.351440,29.009342 
	C742.404724,29.009342 750.660217,28.863314 758.897705,29.181873 
	C760.010559,29.224913 761.381470,31.445749 762.044800,32.922363 
	C770.757202,52.316830 779.361755,71.759781 788.000610,91.187302 
	C788.771362,92.920586 789.593567,94.630989 791.278809,96.135574 
	C791.278809,73.919456 791.278809,51.703342 791.278809,29.245079 
	C799.299255,29.245079 806.868347,29.245079 814.674622,29.245079 
	C814.674622,69.828461 814.674622,110.224533 814.674622,151.160477 
	C806.395752,151.160477 798.283020,151.279831 790.182617,151.018723 
	C789.094482,150.983658 787.668701,149.214508 787.076843,147.934921 
	C782.684021,138.438416 778.462646,128.862625 774.063843,118.953903 
z"/>
<path fill="#353535" opacity="1.000000" stroke="none" 
	d="
M838.161499,39.164017 
	C844.290344,30.509556 852.222351,27.385300 862.393066,28.887297 
	C866.794922,29.537357 871.450867,29.530199 875.854187,28.884960 
	C885.001770,27.544514 891.121887,31.370049 897.479797,37.719265 
	C903.861206,44.092010 907.626221,50.290470 906.225098,59.397655 
	C905.678955,62.947594 906.135803,66.651848 906.135803,70.562119 
	C898.335327,70.562119 890.927307,70.562119 883.022827,70.562119 
	C883.022827,64.763504 883.022827,59.017532 883.022827,52.904694 
	C873.163208,52.904694 863.787048,52.904694 854.128418,52.904694 
	C854.128418,77.779671 854.128418,102.668503 854.128418,127.777191 
	C863.563782,127.777191 872.844788,127.777191 882.501587,127.777191 
	C882.501587,119.452065 882.501587,111.055725 882.501587,102.118530 
	C878.462036,102.118530 874.234436,102.118530 869.621582,102.118530 
	C869.621582,94.185776 869.621582,86.773125 869.621582,78.915421 
	C881.482483,78.915421 893.517639,78.915421 906.133911,78.915421 
	C906.133911,83.810265 906.133850,88.747948 906.133850,93.685623 
	C906.133850,105.846474 906.232300,118.008942 906.031494,130.166473 
	C906.000183,132.061218 905.058472,134.359726 903.760254,135.740295 
	C898.859558,140.951736 894.436646,147.721207 888.308472,150.352631 
	C882.375000,152.900482 874.449036,150.307480 867.601135,151.330750 
	C853.364014,153.458160 842.631287,148.727036 833.994629,137.433411 
	C831.639221,134.353317 830.112000,131.802734 830.142883,127.823318 
	C830.323669,104.502541 830.585449,81.171227 830.032349,57.862164 
	C829.846191,50.019619 831.586548,43.994328 838.161499,39.164017 
z"/>
<path fill="#353535" opacity="1.000000" stroke="none" 
	d="
M122.212799,52.000000 
	C122.212814,44.202904 122.212814,36.905792 122.212814,29.305391 
	C130.126099,29.305391 137.693710,29.305391 145.568451,29.305391 
	C145.568451,69.681114 145.568451,110.057838 145.568451,150.803497 
	C138.034378,150.803497 130.468781,150.803497 122.317490,150.803497 
	C122.317490,134.699478 122.317490,118.493515 122.317490,102.069733 
	C113.468033,102.069733 105.195351,102.069733 96.343811,102.069733 
	C96.343811,118.251236 96.343811,134.447647 96.343811,150.903870 
	C88.356079,150.903870 80.940750,150.903870 73.193802,150.903870 
	C73.193802,110.534241 73.193802,70.143349 73.193802,29.374184 
	C80.506622,29.374184 88.046021,29.374184 96.129425,29.374184 
	C96.129425,45.529835 96.129425,61.744446 96.129425,78.213371 
	C104.940498,78.213371 113.219315,78.213371 122.212776,78.213371 
	C122.212776,69.694740 122.212776,61.097363 122.212799,52.000000 
z"/>
<path fill="#343434" opacity="1.000000" stroke="none" 
	d="
M501.799805,40.207680 
	C507.576477,44.363270 509.305878,49.561729 508.832794,56.339333 
	C508.219696,65.122749 508.854431,73.986984 508.561493,82.803452 
	C508.488312,85.005951 507.435577,87.637840 505.943085,89.246788 
	C500.973358,94.604248 496.408844,101.449875 490.144958,104.171898 
	C484.248199,106.734383 476.396118,104.806526 469.404236,104.836472 
	C465.119843,104.854828 460.835297,104.839867 456.173737,104.839867 
	C456.173737,120.408417 456.173737,135.491913 456.173737,150.868942 
	C448.379547,150.868942 440.965942,150.868942 433.179077,150.868942 
	C433.179077,110.474091 433.179077,69.971931 433.179077,28.998215 
	C442.314819,28.998215 451.429565,28.998205 460.544342,28.998217 
	C465.373779,28.998224 470.282959,29.559208 475.016663,28.886072 
	C486.217316,27.293339 495.091919,30.541059 501.799805,40.207680 
M473.473633,81.550072 
	C477.251099,81.550072 481.028534,81.550072 484.735779,81.550072 
	C484.735779,71.547234 484.735779,62.158813 484.735779,52.875160 
	C475.012451,52.875160 465.645966,52.875160 456.345764,52.875160 
	C456.345764,62.559864 456.345764,71.816917 456.345764,81.549881 
	C461.896179,81.549881 467.190277,81.549881 473.473633,81.550072 
z"/>
<path fill="#343434" opacity="1.000000" stroke="none" 
	d="
M400.523438,102.839035 
	C398.446655,103.677277 396.663849,104.733124 394.864502,104.762108 
	C384.752380,104.925034 374.636230,104.840660 364.157959,104.840660 
	C364.157959,120.346924 364.157959,135.432022 364.157959,150.840607 
	C356.262238,150.840607 348.731140,150.840607 340.961517,150.840607 
	C340.961517,110.312607 340.961517,69.928780 340.961517,28.999016 
	C343.799957,28.999016 346.580963,28.999018 349.361938,28.999018 
	C364.514191,28.999020 379.668091,28.891516 394.816895,29.120026 
	C396.979675,29.152649 399.581024,30.315907 401.182434,31.810040 
	C406.403046,36.680847 413.158936,41.154236 415.711945,47.284786 
	C418.261841,53.407806 415.740265,61.443424 416.724396,68.460739 
	C418.586670,81.739548 414.553040,92.051331 403.625549,99.757248 
	C402.555145,100.512062 401.742218,101.632019 400.523438,102.839035 
M364.033691,57.703659 
	C364.033691,65.491348 364.033691,73.279030 364.033691,81.264236 
	C373.916931,81.264236 383.334259,81.264236 392.700195,81.264236 
	C392.700195,71.574219 392.700195,62.173603 392.700195,52.686310 
	C383.082977,52.686310 373.808380,52.686310 364.273956,52.686310 
	C364.185333,54.188793 364.109528,55.473736 364.033691,57.703659 
z"/>
<path fill="#333333" opacity="1.000000" stroke="none" 
	d="
M548.384216,109.049194 
	C548.384216,115.173676 548.384216,121.298157 548.384216,127.781372 
	C561.103943,127.781372 573.698730,127.781372 586.644653,127.781372 
	C586.644653,135.667984 586.644653,143.201797 586.644653,150.947632 
	C566.150208,150.947632 545.750977,150.947632 525.089539,150.947632 
	C525.089539,110.329323 525.089539,69.927048 525.089539,29.262379 
	C545.614990,29.262379 566.026123,29.262379 587.033936,29.262379 
	C587.033936,31.861752 587.033936,34.465759 587.016357,37.971626 
	C587.041992,41.922153 587.085266,44.970814 587.071289,48.473999 
	C587.450256,51.758266 586.249207,52.590542 583.428955,52.547146 
	C576.640991,52.442688 569.847595,52.688087 562.691406,52.639164 
	C559.875549,52.579006 557.424622,52.672050 554.561890,52.637878 
	C552.233765,52.510666 550.317505,52.510666 548.462402,52.510666 
	C548.462402,61.500912 548.462402,69.828087 548.462402,78.263939 
	C553.538879,78.263939 558.289673,78.263939 563.422607,78.407036 
	C568.798157,78.550133 573.791565,78.550133 578.816467,78.550133 
	C579.025940,80.838379 579.172668,82.441040 579.319397,84.043701 
	C579.319397,89.806206 579.319397,95.568703 579.319397,101.872597 
	C572.429504,101.872597 566.174011,101.872597 559.129944,101.840721 
	C555.091064,101.808846 551.840759,101.808846 548.384216,101.808846 
	C548.384216,104.547729 548.384216,106.798462 548.384216,109.049194 
z"/>
<path fill="#383838" opacity="1.000000" stroke="none" 
	d="
M719.912598,45.002975 
	C719.912537,80.623428 719.912537,115.744720 719.912537,151.090393 
	C711.978088,151.090393 704.378296,151.090393 696.545288,151.090393 
	C696.545288,110.486374 696.545288,70.084641 696.545288,29.320457 
	C704.156189,29.320457 711.712891,29.320457 719.912598,29.320457 
	C719.912598,34.309250 719.912598,39.406532 719.912598,45.002975 
z"/>
<path fill="#404040" opacity="1.000000" stroke="none" 
	d="
M166.081451,149.037109 
	C170.096375,142.109406 174.064758,135.574234 177.740494,128.878403 
	C179.181534,126.253380 180.796005,125.046997 183.936569,125.054810 
	C224.052444,125.154724 264.168945,125.065681 304.283997,125.273880 
	C306.430817,125.285019 309.426300,126.976700 310.560669,128.798782 
	C315.999542,137.535004 320.998322,146.549347 326.021759,155.538483 
	C328.899933,160.688858 327.511353,163.019104 321.713165,163.020844 
	C270.111511,163.036255 218.509827,163.034912 166.908157,163.022278 
	C160.758286,163.020767 159.437592,160.750168 162.414246,155.401199 
	C163.545288,153.368774 164.747879,151.376144 166.081451,149.037109 
M271.499878,155.410599 
	C286.574432,155.410599 301.648956,155.410599 317.638733,155.410599 
	C313.474731,148.276749 309.989563,141.893906 306.036194,135.815567 
	C305.017029,134.248627 302.530212,132.732025 300.710358,132.723450 
	C263.056244,132.545914 225.401077,132.577271 187.746231,132.640701 
	C186.394165,132.642975 184.364090,132.967575 183.800110,133.864868 
	C179.514404,140.683487 175.515564,147.682419 170.964737,155.410751 
	C204.908798,155.410751 237.704315,155.410751 271.499878,155.410599 
z"/>
<path fill="#3A3A3A" opacity="1.000000" stroke="none" 
	d="
M281.997131,115.015312 
	C252.843063,115.015228 224.188416,115.022179 195.533768,115.010284 
	C188.020905,115.007164 186.816452,112.906036 190.591522,106.378487 
	C195.002136,98.751999 199.565811,91.211617 203.841522,83.510857 
	C205.299545,80.884857 206.921692,79.722198 210.059753,79.740761 
	C232.882721,79.875801 255.707428,79.745644 278.529541,79.940216 
	C280.427704,79.956406 283.101410,81.250526 284.068604,82.794312 
	C289.184296,90.959862 293.935822,99.357689 298.676971,107.752151 
	C301.409698,112.590523 300.019867,114.900200 294.491272,115.000496 
	C290.494263,115.073013 286.494873,115.015076 281.997131,115.015312 
M248.500000,87.014862 
	C237.004410,87.015038 225.508392,86.968201 214.013763,87.073380 
	C212.535370,87.086906 210.325241,87.424675 209.710556,88.402283 
	C205.940948,94.397446 202.533218,100.620155 198.847549,107.041382 
	C229.265411,107.041382 259.085144,107.041382 289.610382,107.041382 
	C286.150299,100.996918 283.233978,95.425392 279.798828,90.194618 
	C278.779327,88.642197 276.332428,87.227715 274.484924,87.155914 
	C266.167358,86.832672 257.830139,87.014877 248.500000,87.014862 
z"/>
<path fill="#3B3B3B" opacity="1.000000" stroke="none" 
	d="
M266.253387,51.701614 
	C268.606812,55.746246 270.878601,59.418056 272.926605,63.210720 
	C275.292114,67.591408 274.011383,69.802856 268.953217,69.829391 
	C252.663589,69.914856 236.373108,69.904358 220.083328,69.837730 
	C214.754364,69.815941 213.389404,67.270836 216.154495,62.425495 
	C223.224518,50.036507 230.412903,37.715061 237.553925,25.366587 
	C238.218155,24.217976 238.879547,23.067722 239.546921,21.920942 
	C243.096909,15.820814 245.401382,15.869265 249.052444,22.135681 
	C254.730850,31.881655 260.399841,41.633095 266.253387,51.701614 
M258.232422,62.143951 
	C259.784821,62.055172 261.337219,61.966396 263.490692,61.843243 
	C256.959045,50.548382 250.776810,39.857765 244.247147,28.566349 
	C237.702255,39.862419 231.436188,50.677269 224.792435,62.143970 
	C236.142380,62.143970 246.715866,62.143970 258.232422,62.143951 
z"/>
<path fill="#E6E6E6" opacity="1.000000" stroke="none" 
	d="
M579.726318,84.039299 
	C579.172668,82.441040 579.025940,80.838379 578.816467,78.550133 
	C573.791565,78.550133 568.798157,78.550133 563.420959,78.019173 
	C562.840088,76.697273 562.896729,75.663002 562.407227,75.152397 
	C556.366882,68.852058 554.599182,61.173100 554.973755,52.765095 
	C557.424622,52.672050 559.875549,52.579006 562.665955,53.101303 
	C562.247681,61.505718 564.651489,67.994446 570.635986,73.206841 
	C575.044250,77.046272 580.072327,78.398972 585.329712,76.182930 
	C591.230347,73.695778 596.213562,69.290245 595.760681,62.437862 
	C595.380066,56.677975 593.633789,50.635239 587.128601,48.019478 
	C587.085266,44.970814 587.041992,41.922153 587.085815,38.424011 
	C590.118103,40.040455 593.085571,42.075653 595.997437,44.187630 
	C597.140259,45.016533 598.158447,46.017303 599.577271,46.963448 
	C599.980347,56.020756 600.039551,65.054428 600.010559,74.550385 
	C597.717041,76.406525 595.291382,77.548958 593.353088,79.247421 
	C589.513672,82.611717 585.115845,84.031326 579.726318,84.039299 
z"/>
<path fill="#F0F1F1" opacity="1.000000" stroke="none" 
	d="
M604.014099,28.426075 
	C602.798950,28.960054 601.582642,29.101324 600.041016,29.280384 
	C600.041016,31.379040 600.041016,33.263962 599.948364,35.580166 
	C595.412781,31.794901 596.804932,26.727423 598.048706,21.871639 
	C601.282227,9.247773 620.232910,-0.567455 631.842957,10.957458 
	C630.247192,13.723662 628.270874,15.367961 624.697327,14.410800 
	C613.291992,11.355898 605.812927,16.325670 604.014099,28.426075 
z"/>
<path fill="#F0F1F1" opacity="1.000000" stroke="none" 
	d="
M627.707275,31.108593 
	C626.051025,30.395981 624.394775,29.683359 622.361938,28.892185 
	C626.502869,25.320015 630.957336,21.736437 635.628967,18.462770 
	C636.132874,18.109703 638.248291,19.272089 639.011353,20.218960 
	C641.396301,23.178518 643.404663,26.438053 645.719727,29.458181 
	C648.829712,33.515404 647.867065,37.260044 644.820190,40.632957 
	C642.191040,43.543354 639.190674,46.118378 636.021362,48.973053 
	C634.801331,47.299793 633.914307,45.495148 633.362305,43.309181 
	C642.249329,36.326859 641.024048,34.774204 634.010010,27.319992 
	C631.906616,28.578619 629.806946,29.843603 627.707275,31.108593 
z"/>
<path fill="#E6E6E6" opacity="1.000000" stroke="none" 
	d="
M548.713684,108.996780 
	C548.384216,106.798462 548.384216,104.547729 548.384216,101.808846 
	C551.840759,101.808846 555.091064,101.808846 558.666870,101.920891 
	C555.676025,104.336739 552.359619,106.640549 548.713684,108.996780 
z"/>
<path fill="#FBFCFC" opacity="1.000000" stroke="none" 
	d="
M627.770813,31.476139 
	C629.806946,29.843603 631.906616,28.578619 634.010010,27.319992 
	C641.024048,34.774204 642.249329,36.326859 633.349487,42.963577 
	C631.279236,39.280758 629.556824,35.562225 627.770813,31.476139 
z"/>
<path fill="#F7F8F8" opacity="1.000000" stroke="none" 
	d="
M472.979004,81.549973 
	C467.190277,81.549881 461.896179,81.549881 456.345764,81.549881 
	C456.345764,71.816917 456.345764,62.559864 456.345764,52.875160 
	C465.645966,52.875160 475.012451,52.875160 484.735779,52.875160 
	C484.735779,62.158813 484.735779,71.547234 484.735779,81.550072 
	C481.028534,81.550072 477.251099,81.550072 472.979004,81.549973 
z"/>
<path fill="#F7F8F8" opacity="1.000000" stroke="none" 
	d="
M364.033691,57.231167 
	C364.109528,55.473736 364.185333,54.188793 364.273956,52.686310 
	C373.808380,52.686310 383.082977,52.686310 392.700195,52.686310 
	C392.700195,62.173603 392.700195,71.574219 392.700195,81.264236 
	C383.334259,81.264236 373.916931,81.264236 364.033691,81.264236 
	C364.033691,73.279030 364.033691,65.491348 364.033691,57.231167 
z"/>
<path fill="#FEFFFF" opacity="1.000000" stroke="none" 
	d="
M587.071289,48.473999 
	C593.633789,50.635239 595.380066,56.677975 595.760681,62.437862 
	C596.213562,69.290245 591.230347,73.695778 585.329712,76.182930 
	C580.072327,78.398972 575.044250,77.046272 570.635986,73.206841 
	C564.651489,67.994446 562.247681,61.505718 563.030945,53.254501 
	C569.847595,52.688087 576.640991,52.442688 583.428955,52.547146 
	C586.249207,52.590542 587.450256,51.758266 587.071289,48.473999 
z"/>
<path fill="#F7F8F8" opacity="1.000000" stroke="none" 
	d="
M554.561890,52.637878 
	C554.599182,61.173100 556.366882,68.852058 562.407227,75.152397 
	C562.896729,75.663002 562.840088,76.697273 563.038818,77.876076 
	C558.289673,78.263939 553.538879,78.263939 548.462402,78.263939 
	C548.462402,69.828087 548.462402,61.500912 548.462402,52.510666 
	C550.317505,52.510666 552.233765,52.510666 554.561890,52.637878 
z"/>
<path fill="#FEFFFF" opacity="1.000000" stroke="none" 
	d="
M270.999878,155.410675 
	C237.704315,155.410751 204.908798,155.410751 170.964737,155.410751 
	C175.515564,147.682419 179.514404,140.683487 183.800110,133.864868 
	C184.364090,132.967575 186.394165,132.642975 187.746231,132.640701 
	C225.401077,132.577271 263.056244,132.545914 300.710358,132.723450 
	C302.530212,132.732025 305.017029,134.248627 306.036194,135.815567 
	C309.989563,141.893906 313.474731,148.276749 317.638733,155.410599 
	C301.648956,155.410599 286.574432,155.410599 270.999878,155.410675 
z"/>
<path fill="#FDFEFE" opacity="1.000000" stroke="none" 
	d="
M249.000000,87.014862 
	C257.830139,87.014877 266.167358,86.832672 274.484924,87.155914 
	C276.332428,87.227715 278.779327,88.642197 279.798828,90.194618 
	C283.233978,95.425392 286.150299,100.996918 289.610382,107.041382 
	C259.085144,107.041382 229.265411,107.041382 198.847549,107.041382 
	C202.533218,100.620155 205.940948,94.397446 209.710556,88.402283 
	C210.325241,87.424675 212.535370,87.086906 214.013763,87.073380 
	C225.508392,86.968201 237.004410,87.015038 249.000000,87.014862 
z"/>
<path fill="#FBFCFC" opacity="1.000000" stroke="none" 
	d="
M257.760895,62.143959 
	C246.715866,62.143970 236.142380,62.143970 224.792435,62.143970 
	C231.436188,50.677269 237.702255,39.862419 244.247147,28.566349 
	C250.776810,39.857765 256.959045,50.548382 263.490692,61.843243 
	C261.337219,61.966396 259.784821,62.055172 257.760895,62.143959 
z"/>
</svg>